<svg width="100" height="104" viewBox="0 0 100 104" fill="none" xmlns="http://www.w3.org/2000/svg">
<path opacity="0.1" d="M50 80.6C65.1878 80.6 77.5 67.7953 77.5 52C77.5 36.2046 65.1878 23.4 50 23.4C34.8122 23.4 22.5 36.2046 22.5 52C22.5 67.7953 34.8122 80.6 50 80.6Z" fill="#3B82F6"/>
<path d="M50 78C63.8071 78 75 66.3594 75 52C75 37.6406 63.8071 26 50 26C36.1929 26 25 37.6406 25 52C25 66.3594 36.1929 78 50 78Z" fill="#F1F5F9"/>
<path d="M50 71.76C59.665 71.76 67.5 65.2413 67.5 57.2C67.5 49.1587 59.665 42.64 50 42.64C40.335 42.64 32.5 49.1587 32.5 57.2C32.5 65.2413 40.335 71.76 50 71.76Z" fill="#E2E8F0"/>
<path opacity="0.6" d="M35 64.48C39.4183 64.48 43 60.755 43 56.16C43 51.565 39.4183 47.84 35 47.84C30.5817 47.84 27 51.565 27 56.16C27 60.755 30.5817 64.48 35 64.48Z" fill="#CBD5E1"/>
<path opacity="0.6" d="M65 64.48C69.4183 64.48 73 60.755 73 56.16C73 51.565 69.4183 47.84 65 47.84C60.5817 47.84 57 51.565 57 56.16C57 60.755 60.5817 64.48 65 64.48Z" fill="#CBD5E1"/>
<path d="M42.5 53.04C44.433 53.04 46 51.4103 46 49.4C46 47.3897 44.433 45.76 42.5 45.76C40.567 45.76 39 47.3897 39 49.4C39 51.4103 40.567 53.04 42.5 53.04Z" fill="#1E293B"/>
<path d="M57.5 53.04C59.433 53.04 61 51.4103 61 49.4C61 47.3897 59.433 45.76 57.5 45.76C55.567 45.76 54 47.3897 54 49.4C54 51.4103 55.567 53.04 57.5 53.04Z" fill="#1E293B"/>
<path d="M43.5 49.66C44.1904 49.66 44.75 49.078 44.75 48.36C44.75 47.642 44.1904 47.06 43.5 47.06C42.8096 47.06 42.25 47.642 42.25 48.36C42.25 49.078 42.8096 49.66 43.5 49.66Z" fill="white"/>
<path d="M58.5 49.66C59.1904 49.66 59.75 49.078 59.75 48.36C59.75 47.642 59.1904 47.06 58.5 47.06C57.8096 47.06 57.25 47.642 57.25 48.36C57.25 49.078 57.8096 49.66 58.5 49.66Z" fill="white"/>
<path d="M38.5 44.72C41.1667 44.0267 43.8333 44.0267 46.5 44.72" stroke="#475569" stroke-width="2" stroke-linecap="round"/>
<path d="M53.5 44.72C56.1667 44.0267 58.8333 44.0267 61.5 44.72" stroke="#475569" stroke-width="2" stroke-linecap="round"/>
<path d="M50 59.8C52.4853 59.8 54.5 58.1703 54.5 56.16C54.5 54.1497 52.4853 52.52 50 52.52C47.5147 52.52 45.5 54.1497 45.5 56.16C45.5 58.1703 47.5147 59.8 50 59.8Z" fill="#64748B"/>
<path d="M50 58.24C51.6569 58.24 53 57.3088 53 56.16C53 55.0112 51.6569 54.08 50 54.08C48.3431 54.08 47 55.0112 47 56.16C47 57.3088 48.3431 58.24 50 58.24Z" fill="#475569"/>
<path d="M42.5 61.36C47.5 63.7867 52.5 63.7867 57.5 61.36" stroke="#64748B" stroke-width="2.5" stroke-linecap="round"/>
<path opacity="0.4" d="M50 82.16C66.0163 82.16 79 68.6569 79 52C79 35.3431 66.0163 21.84 50 21.84C33.9837 21.84 21 35.3431 21 52C21 68.6569 33.9837 82.16 50 82.16Z" stroke="#3B82F6" stroke-width="2" stroke-dasharray="5 5"/>
<path d="M32.3307 43.1077C36.106 41.7443 37.9364 34.4518 36.419 26.8195C34.9016 19.1872 30.6111 14.1053 26.8358 15.4686C23.0605 16.832 21.2301 24.1245 22.7475 31.7568C24.2648 39.3891 28.5554 44.471 32.3307 43.1077Z" fill="#CBD5E1"/>
<path d="M31.4149 38.5011C33.7744 37.649 34.8672 32.8334 33.8556 27.7452C32.844 22.657 30.1112 19.223 27.7516 20.0751C25.392 20.9272 24.2993 25.7428 25.3109 30.831C26.3225 35.9192 29.0553 39.3532 31.4149 38.5011Z" fill="#E2E8F0"/>
<path d="M67.3358 43.1077C63.5605 41.7443 61.7301 34.4518 63.2475 26.8195C64.7649 19.1872 69.0554 14.1053 72.8307 15.4686C76.606 16.832 78.4364 24.1245 76.919 31.7568C75.4017 39.3891 71.1111 44.471 67.3358 43.1077Z" fill="#CBD5E1"/>
<path d="M68.2516 38.5011C65.8921 37.649 64.7993 32.8334 65.8109 27.7452C66.8225 22.657 69.5553 19.223 71.9149 20.0751C74.2745 20.9272 75.3672 25.7428 74.3556 30.831C73.344 35.9192 70.6112 39.3532 68.2516 38.5011Z" fill="#E2E8F0"/>
<path d="M53.7011 77.6009C53.7342 83.9137 58.5331 89.0021 64.4199 88.966C70.3066 88.93 75.052 83.7832 75.0189 77.4704C74.9858 71.1576 70.1869 66.0692 64.3002 66.1052C58.4134 66.1413 53.6681 71.288 53.7011 77.6009Z" fill="#475569"/>
<path d="M55.9852 77.5869C56.0111 82.547 59.7817 86.545 64.407 86.5167C69.0323 86.4883 72.7608 82.4445 72.7348 77.4844C72.7089 72.5243 68.9383 68.5263 64.313 68.5546C59.6877 68.5829 55.9592 72.6268 55.9852 77.5869Z" fill="#64748B"/>
<path d="M59.0306 77.5682C59.0471 80.7246 61.4466 83.2688 64.39 83.2508C67.3333 83.2328 69.706 80.6594 69.6895 77.503C69.6729 74.3466 67.2735 71.8024 64.3301 71.8204C61.3867 71.8384 59.0141 74.4118 59.0306 77.5682Z" fill="#94A3B8"/>
<path d="M62.0897 79.9934C63.351 79.9857 64.3676 78.884 64.3605 77.5326C64.3535 76.1812 63.3253 75.092 62.0641 75.0997L39.989 75.2347C38.7278 75.2424 37.7112 76.3442 37.7182 77.6955C37.7253 79.0469 38.7535 80.1361 40.0147 80.1284L62.0897 79.9934Z" fill="#64748B"/>
<path d="M27.0598 77.7577C27.0929 84.0706 31.8918 89.1589 37.7786 89.1229C43.6653 89.0868 48.4107 83.9401 48.3776 77.6272C48.3445 71.3144 43.5456 66.2261 37.6589 66.2621C31.7721 66.2981 27.0268 71.4449 27.0598 77.7577Z" fill="#475569"/>
<path d="M29.3439 77.7437C29.3699 82.7038 33.1405 86.7018 37.7658 86.6735C42.3911 86.6452 46.1196 82.6013 46.0936 77.6412C46.0676 72.6811 42.297 68.6832 37.6717 68.7115C33.0464 68.7398 29.3179 72.7837 29.3439 77.7437Z" fill="#64748B"/>
<path d="M32.3893 77.7251C32.4058 80.8815 34.8053 83.4257 37.7487 83.4077C40.692 83.3897 43.0647 80.8163 43.0482 77.6599C43.0316 74.5035 40.6322 71.9593 37.6888 71.9773C34.7454 71.9953 32.3728 74.5687 32.3893 77.7251Z" fill="#94A3B8"/>
</svg>
