<svg width="450" height="135" viewBox="0 0 450 135" fill="none" xmlns="http://www.w3.org/2000/svg">
<path d="M123.12 92.864C120.432 92.864 117.84 92.576 115.344 92C112.848 91.472 110.64 90.608 108.72 89.408C106.8 88.16 105.288 86.6 104.184 84.728C103.08 82.808 102.528 80.528 102.528 77.888C102.528 77.6 102.528 77.336 102.528 77.096C102.576 76.808 102.6 76.568 102.6 76.376H110.664C110.664 76.52 110.64 76.736 110.592 77.024C110.592 77.312 110.592 77.552 110.592 77.744C110.592 79.52 111.12 81.032 112.176 82.28C113.232 83.528 114.696 84.464 116.568 85.088C118.488 85.712 120.672 86.024 123.12 86.024C124.464 86.024 125.76 85.952 127.008 85.808C128.256 85.616 129.384 85.352 130.392 85.016C131.448 84.632 132.36 84.176 133.128 83.648C133.896 83.072 134.496 82.4 134.928 81.632C135.36 80.864 135.576 79.976 135.576 78.968C135.576 77.432 135.12 76.16 134.208 75.152C133.344 74.144 132.144 73.304 130.608 72.632C129.12 71.96 127.416 71.36 125.496 70.832C123.624 70.304 121.68 69.776 119.664 69.248C117.648 68.72 115.68 68.096 113.76 67.376C111.888 66.656 110.184 65.792 108.648 64.784C107.16 63.728 105.96 62.432 105.048 60.896C104.184 59.312 103.752 57.392 103.752 55.136C103.752 52.976 104.208 51.056 105.12 49.376C106.032 47.696 107.352 46.304 109.08 45.2C110.808 44.048 112.872 43.184 115.272 42.608C117.672 42.032 120.384 41.744 123.408 41.744C126 41.744 128.448 42.032 130.752 42.608C133.056 43.136 135.072 43.976 136.8 45.128C138.528 46.28 139.872 47.744 140.832 49.52C141.84 51.296 142.344 53.408 142.344 55.856V56.72H134.352V55.784C134.352 54.248 133.896 52.952 132.984 51.896C132.072 50.84 130.8 50.024 129.168 49.448C127.536 48.872 125.64 48.584 123.48 48.584C120.936 48.584 118.8 48.848 117.072 49.376C115.344 49.856 114.024 50.552 113.112 51.464C112.248 52.328 111.816 53.384 111.816 54.632C111.816 56.024 112.272 57.176 113.184 58.088C114.096 58.952 115.296 59.696 116.784 60.32C118.32 60.944 120.024 61.52 121.896 62.048C123.816 62.528 125.76 63.056 127.728 63.632C129.744 64.16 131.688 64.784 133.56 65.504C135.48 66.224 137.184 67.112 138.672 68.168C140.208 69.224 141.432 70.544 142.344 72.128C143.256 73.664 143.712 75.56 143.712 77.816C143.712 81.368 142.824 84.272 141.048 86.528C139.272 88.736 136.824 90.344 133.704 91.352C130.632 92.36 127.104 92.864 123.12 92.864ZM151.626 92V42.608H176.25C179.754 42.608 182.658 43.256 184.962 44.552C187.266 45.848 188.994 47.648 190.146 49.952C191.346 52.208 191.946 54.896 191.946 58.016C191.946 61.136 191.322 63.896 190.074 66.296C188.826 68.648 187.002 70.472 184.602 71.768C182.25 73.064 179.37 73.712 175.962 73.712H159.69V92H151.626ZM159.69 66.8H175.602C178.146 66.8 180.138 66.032 181.578 64.496C183.066 62.96 183.81 60.824 183.81 58.088C183.81 56.264 183.498 54.728 182.874 53.48C182.25 52.184 181.338 51.2 180.138 50.528C178.938 49.856 177.426 49.52 175.602 49.52H159.69V66.8ZM220.602 92.864C215.514 92.864 211.098 91.928 207.354 90.056C203.658 88.184 200.802 85.352 198.786 81.56C196.818 77.768 195.834 73.016 195.834 67.304C195.834 61.544 196.818 56.792 198.786 53.048C200.802 49.256 203.658 46.424 207.354 44.552C211.098 42.68 215.514 41.744 220.602 41.744C225.786 41.744 230.226 42.68 233.922 44.552C237.618 46.424 240.45 49.256 242.418 53.048C244.434 56.792 245.442 61.544 245.442 67.304C245.442 73.016 244.434 77.768 242.418 81.56C240.45 85.352 237.618 88.184 233.922 90.056C230.226 91.928 225.786 92.864 220.602 92.864ZM220.602 86.024C223.242 86.024 225.57 85.664 227.586 84.944C229.65 84.224 231.378 83.12 232.77 81.632C234.21 80.144 235.29 78.272 236.01 76.016C236.778 73.76 237.162 71.144 237.162 68.168V66.584C237.162 63.512 236.778 60.848 236.01 58.592C235.29 56.336 234.21 54.464 232.77 52.976C231.378 51.488 229.65 50.384 227.586 49.664C225.57 48.944 223.242 48.584 220.602 48.584C218.01 48.584 215.682 48.944 213.618 49.664C211.602 50.384 209.874 51.488 208.434 52.976C207.042 54.464 205.986 56.336 205.266 58.592C204.546 60.848 204.186 63.512 204.186 66.584V68.168C204.186 71.144 204.546 73.76 205.266 76.016C205.986 78.272 207.042 80.144 208.434 81.632C209.874 83.12 211.602 84.224 213.618 84.944C215.682 85.664 218.01 86.024 220.602 86.024ZM263.639 92V49.52H247.295V42.608H288.191V49.52H271.703V92H263.639Z" fill="#94A3B8"/>
<path d="M291.107 92V83.648H299.099V92H291.107ZM305.945 92L325.313 42.608H335.609L355.049 92H346.409L342.017 80.552H318.617L314.225 92H305.945ZM321.209 73.712H339.353L333.809 59.24C333.665 58.808 333.449 58.208 333.161 57.44C332.873 56.672 332.561 55.832 332.225 54.92C331.937 54.008 331.625 53.096 331.289 52.184C331.001 51.224 330.737 50.36 330.497 49.592H330.065C329.777 50.504 329.417 51.584 328.985 52.832C328.553 54.08 328.121 55.28 327.689 56.432C327.305 57.584 326.969 58.52 326.681 59.24L321.209 73.712ZM361.408 92V42.608H369.472V92H361.408Z" fill="#1E3A8A"/>
<path opacity="0.1" d="M69.5 93.525C82.4097 93.525 92.875 82.3209 92.875 68.5C92.875 54.679 82.4097 43.475 69.5 43.475C56.5903 43.475 46.125 54.679 46.125 68.5C46.125 82.3209 56.5903 93.525 69.5 93.525Z" fill="#3B82F6"/>
<path d="M69.5 91.25C81.2361 91.25 90.75 81.0645 90.75 68.5C90.75 55.9355 81.2361 45.75 69.5 45.75C57.7639 45.75 48.25 55.9355 48.25 68.5C48.25 81.0645 57.7639 91.25 69.5 91.25Z" fill="#F1F5F9"/>
<path d="M69.5 85.7901C77.7152 85.7901 84.375 80.0862 84.375 73.0501C84.375 66.014 77.7152 60.3101 69.5 60.3101C61.2848 60.3101 54.625 66.014 54.625 73.0501C54.625 80.0862 61.2848 85.7901 69.5 85.7901Z" fill="#E2E8F0"/>
<path opacity="0.6" d="M56.75 79.42C60.5055 79.42 63.55 76.1606 63.55 72.14C63.55 68.1194 60.5055 64.86 56.75 64.86C52.9944 64.86 49.95 68.1194 49.95 72.14C49.95 76.1606 52.9944 79.42 56.75 79.42Z" fill="#CBD5E1"/>
<path opacity="0.6" d="M82.25 79.42C86.0055 79.42 89.05 76.1606 89.05 72.14C89.05 68.1194 86.0055 64.86 82.25 64.86C78.4944 64.86 75.45 68.1194 75.45 72.14C75.45 76.1606 78.4944 79.42 82.25 79.42Z" fill="#CBD5E1"/>
<path opacity="0.6" d="M77.8 71.56C81.5555 71.56 84.6 68.3006 84.6 64.28C84.6 60.2594 81.5555 57 77.8 57C74.0445 57 71 60.2594 71 64.28C71 68.3006 74.0445 71.56 77.8 71.56Z" fill="#1E3A8A"/>
<path d="M63.1249 69.41C64.7679 69.41 66.0999 67.9841 66.0999 66.225C66.0999 64.466 64.7679 63.04 63.1249 63.04C61.4819 63.04 60.1499 64.466 60.1499 66.225C60.1499 67.9841 61.4819 69.41 63.1249 69.41Z" fill="#1E293B"/>
<path d="M75.8749 69.41C77.5179 69.41 78.8499 67.9841 78.8499 66.225C78.8499 64.466 77.5179 63.04 75.8749 63.04C74.2319 63.04 72.8999 64.466 72.8999 66.225C72.8999 67.9841 74.2319 69.41 75.8749 69.41Z" fill="#1E293B"/>
<path d="M63.9751 66.4525C64.5619 66.4525 65.0376 65.9432 65.0376 65.315C65.0376 64.6868 64.5619 64.1775 63.9751 64.1775C63.3883 64.1775 62.9126 64.6868 62.9126 65.315C62.9126 65.9432 63.3883 66.4525 63.9751 66.4525Z" fill="white"/>
<path d="M76.7251 66.4525C77.3119 66.4525 77.7876 65.9432 77.7876 65.315C77.7876 64.6868 77.3119 64.1775 76.7251 64.1775C76.1383 64.1775 75.6626 64.6868 75.6626 65.315C75.6626 65.9432 76.1383 66.4525 76.7251 66.4525Z" fill="white"/>
<path d="M58.1815 62.6487C59.4833 60.6446 61.1769 59.0937 63.2622 57.9962" stroke="#475569" stroke-width="2" stroke-linecap="round"/>
<path d="M75.9812 58.5834C77.9383 59.9077 79.4582 61.6387 80.5408 63.7765" stroke="#475569" stroke-width="2" stroke-linecap="round"/>
<path d="M69.5 75.325C71.6125 75.325 73.325 73.899 73.325 72.14C73.325 70.3809 71.6125 68.955 69.5 68.955C67.3876 68.955 65.675 70.3809 65.675 72.14C65.675 73.899 67.3876 75.325 69.5 75.325Z" fill="#64748B"/>
<path d="M69.5 73.9599C70.9083 73.9599 72.05 73.1451 72.05 72.1399C72.05 71.1348 70.9083 70.3199 69.5 70.3199C68.0916 70.3199 66.95 71.1348 66.95 72.1399C66.95 73.1451 68.0916 73.9599 69.5 73.9599Z" fill="#475569"/>
<path d="M63.125 76.6899C67.375 78.8133 71.625 78.8133 75.875 76.6899Z" stroke="#64748B" stroke-width="2.5" stroke-linecap="round"/>
<path opacity="0.4" d="M69.5001 94.89C83.1139 94.89 94.1501 83.0748 94.1501 68.5C94.1501 53.9252 83.1139 42.11 69.5001 42.11C55.8863 42.11 44.8501 53.9252 44.8501 68.5C44.8501 83.0748 55.8863 94.89 69.5001 94.89Z" stroke="#3B82F6" stroke-width="2" stroke-dasharray="5 5"/>
<path d="M54.4811 60.7192C57.6901 59.5262 59.2459 53.1453 57.9562 46.4671C56.6664 39.7888 53.0194 35.3421 49.8104 36.535C46.6014 37.728 45.0456 44.1089 46.3353 50.7871C47.6251 57.4654 51.2721 61.9121 54.4811 60.7192Z" fill="#CBD5E1"/>
<path d="M53.7026 56.6885C55.7082 55.9429 56.637 51.7293 55.7772 47.2771C54.9173 42.8249 52.5944 39.8201 50.5888 40.5657C48.5832 41.3113 47.6543 45.525 48.5142 49.9772C49.374 54.4293 51.6969 57.4341 53.7026 56.6885Z" fill="#E2E8F0"/>
<path d="M84.2355 60.7192C81.0265 59.5262 79.4706 53.1453 80.7604 46.4671C82.0502 39.7888 85.6971 35.3421 88.9061 36.535C92.1151 37.728 93.671 44.1089 92.3812 50.7871C91.0914 57.4654 87.4445 61.9121 84.2355 60.7192Z" fill="#CBD5E1"/>
<path d="M85.014 56.6885C83.0084 55.9429 82.0795 51.7293 82.9394 47.2771C83.7992 42.8249 86.1221 39.8201 88.1278 40.5657C90.1334 41.3113 91.0622 45.525 90.2024 49.9772C89.3425 54.4293 87.0196 57.4341 85.014 56.6885Z" fill="#E2E8F0"/>
<path d="M72.6443 90.9024C72.6715 96.4252 76.7507 100.876 81.7552 100.844C86.7598 100.811 90.7947 96.3079 90.7674 90.785C90.7401 85.2622 86.661 80.8113 81.6565 80.8437C76.6519 80.8761 72.617 85.3796 72.6443 90.9024Z" fill="#475569"/>
<path d="M74.5861 90.8898C74.6075 95.2292 77.8125 98.7263 81.7447 98.7008C85.6768 98.6753 88.8471 95.1369 88.8257 90.7976C88.8042 86.4582 85.5992 82.9611 81.6671 82.9865C77.7349 83.012 74.5646 86.5504 74.5861 90.8898Z" fill="#64748B"/>
<path d="M77.175 90.873C77.1887 93.6344 79.2282 95.8599 81.7305 95.8437C84.2328 95.8275 86.2502 93.5757 86.2366 90.8143C86.223 88.0529 84.1834 85.8275 81.6811 85.8437C79.1789 85.8599 77.1614 88.1116 77.175 90.873Z" fill="#94A3B8"/>
<path d="M79.7761 92.9907C80.8481 92.9838 81.7125 92.0205 81.7066 90.8391C81.7008 89.6578 80.827 88.7057 79.7549 88.7126L60.9906 88.834C59.9185 88.8409 59.0542 89.8042 59.06 90.9856C59.0659 92.167 59.9397 93.119 61.0117 93.1121L79.7761 92.9907Z" fill="#64748B"/>
<path d="M49.9993 91.0396C50.0265 96.5624 54.1056 101.013 59.1102 100.981C64.1148 100.948 68.1496 96.4451 68.1224 90.9222C68.0951 85.3994 64.016 80.9485 59.0114 80.9809C54.0069 81.0133 49.972 85.5168 49.9993 91.0396Z" fill="#475569"/>
<path d="M51.941 91.0271C51.9625 95.3665 55.1675 98.8636 59.0996 98.8381C63.0318 98.8127 66.2021 95.2743 66.1806 90.9349C66.1592 86.5955 62.9542 83.0984 59.022 83.1239C55.0899 83.1493 51.9196 86.6877 51.941 91.0271Z" fill="#64748B"/>
<path d="M54.53 91.0103C54.5437 93.7718 56.5832 95.9972 59.0855 95.981C61.5878 95.9648 63.6052 93.7131 63.5916 90.9517C63.5779 88.1902 61.5384 85.9648 59.0361 85.981C56.5338 85.9972 54.5164 88.2489 54.53 91.0103Z" fill="#94A3B8"/>
</svg>
