<svg width="85" height="91" viewBox="0 0 85 91" fill="none" xmlns="http://www.w3.org/2000/svg">
<path opacity="0.1" d="M42.5 70.525C55.4097 70.525 65.875 59.3209 65.875 45.5C65.875 31.679 55.4097 20.475 42.5 20.475C29.5903 20.475 19.125 31.679 19.125 45.5C19.125 59.3209 29.5903 70.525 42.5 70.525Z" fill="#3B82F6"/>
<path d="M42.5 68.25C54.2361 68.25 63.75 58.0645 63.75 45.5C63.75 32.9355 54.2361 22.75 42.5 22.75C30.7639 22.75 21.25 32.9355 21.25 45.5C21.25 58.0645 30.7639 68.25 42.5 68.25Z" fill="#F1F5F9"/>
<path d="M42.5 62.79C50.7152 62.79 57.375 57.0861 57.375 50.05C57.375 43.0139 50.7152 37.31 42.5 37.31C34.2848 37.31 27.625 43.0139 27.625 50.05C27.625 57.0861 34.2848 62.79 42.5 62.79Z" fill="#E2E8F0"/>
<path opacity="0.6" d="M29.75 56.42C33.5055 56.42 36.55 53.1606 36.55 49.14C36.55 45.1194 33.5055 41.86 29.75 41.86C25.9944 41.86 22.95 45.1194 22.95 49.14C22.95 53.1606 25.9944 56.42 29.75 56.42Z" fill="#CBD5E1"/>
<path opacity="0.6" d="M55.25 56.42C59.0055 56.42 62.05 53.1606 62.05 49.14C62.05 45.1194 59.0055 41.86 55.25 41.86C51.4944 41.86 48.45 45.1194 48.45 49.14C48.45 53.1606 51.4944 56.42 55.25 56.42Z" fill="#CBD5E1"/>
<path opacity="0.6" d="M50.8 48.56C54.5555 48.56 57.6 45.3006 57.6 41.28C57.6 37.2594 54.5555 34 50.8 34C47.0445 34 44 37.2594 44 41.28C44 45.3006 47.0445 48.56 50.8 48.56Z" fill="#1E3A8A"/>
<path d="M36.1249 46.41C37.7679 46.41 39.0999 44.984 39.0999 43.225C39.0999 41.466 37.7679 40.04 36.1249 40.04C34.4819 40.04 33.1499 41.466 33.1499 43.225C33.1499 44.984 34.4819 46.41 36.1249 46.41Z" fill="#1E293B"/>
<path d="M48.8749 46.41C50.5179 46.41 51.8499 44.984 51.8499 43.225C51.8499 41.466 50.5179 40.04 48.8749 40.04C47.2319 40.04 45.8999 41.466 45.8999 43.225C45.8999 44.984 47.2319 46.41 48.8749 46.41Z" fill="#1E293B"/>
<path d="M36.9751 43.4525C37.5619 43.4525 38.0376 42.9432 38.0376 42.315C38.0376 41.6868 37.5619 41.1775 36.9751 41.1775C36.3883 41.1775 35.9126 41.6868 35.9126 42.315C35.9126 42.9432 36.3883 43.4525 36.9751 43.4525Z" fill="white"/>
<path d="M49.7251 43.4525C50.3119 43.4525 50.7876 42.9432 50.7876 42.315C50.7876 41.6868 50.3119 41.1775 49.7251 41.1775C49.1383 41.1775 48.6626 41.6868 48.6626 42.315C48.6626 42.9432 49.1383 43.4525 49.7251 43.4525Z" fill="white"/>
<path d="M31.1815 39.6486C32.4833 37.6445 34.1769 36.0937 36.2622 34.9961" stroke="#475569" stroke-width="2" stroke-linecap="round"/>
<path d="M48.9812 35.5834C50.9383 36.9077 52.4582 38.6387 53.5408 40.7765" stroke="#475569" stroke-width="2" stroke-linecap="round"/>
<path d="M42.5 52.325C44.6125 52.325 46.325 50.899 46.325 49.14C46.325 47.381 44.6125 45.955 42.5 45.955C40.3876 45.955 38.675 47.381 38.675 49.14C38.675 50.899 40.3876 52.325 42.5 52.325Z" fill="#64748B"/>
<path d="M42.5 50.96C43.9083 50.96 45.05 50.1452 45.05 49.14C45.05 48.1348 43.9083 47.32 42.5 47.32C41.0916 47.32 39.95 48.1348 39.95 49.14C39.95 50.1452 41.0916 50.96 42.5 50.96Z" fill="#475569"/>
<path d="M36.125 53.69C40.375 55.8133 44.625 55.8133 48.875 53.69Z" stroke="#64748B" stroke-width="2.5" stroke-linecap="round"/>
<path opacity="0.4" d="M42.5001 71.89C56.1139 71.89 67.1501 60.0748 67.1501 45.5C67.1501 30.9252 56.1139 19.11 42.5001 19.11C28.8863 19.11 17.8501 30.9252 17.8501 45.5C17.8501 60.0748 28.8863 71.89 42.5001 71.89Z" stroke="#3B82F6" stroke-width="2" stroke-dasharray="5 5"/>
<path d="M27.4811 37.7192C30.6901 36.5262 32.2459 30.1453 30.9562 23.4671C29.6664 16.7888 26.0194 12.3421 22.8104 13.535C19.6014 14.728 18.0456 21.1089 19.3353 27.7871C20.6251 34.4654 24.2721 38.9121 27.4811 37.7192Z" fill="#CBD5E1"/>
<path d="M26.7026 33.6885C28.7082 32.9429 29.637 28.7292 28.7772 24.277C27.9173 19.8249 25.5944 16.8201 23.5888 17.5657C21.5832 18.3113 20.6543 22.5249 21.5142 26.9771C22.374 31.4293 24.6969 34.434 26.7026 33.6885Z" fill="#E2E8F0"/>
<path d="M57.2355 37.7192C54.0265 36.5262 52.4706 30.1453 53.7604 23.4671C55.0502 16.7888 58.6971 12.3421 61.9061 13.535C65.1151 14.728 66.671 21.1089 65.3812 27.7871C64.0914 34.4654 60.4445 38.9121 57.2355 37.7192Z" fill="#CBD5E1"/>
<path d="M58.014 33.6885C56.0084 32.9429 55.0795 28.7292 55.9394 24.277C56.7992 19.8249 59.1221 16.8201 61.1278 17.5657C63.1334 18.3113 64.0622 22.5249 63.2024 26.9771C62.3425 31.4293 60.0196 34.434 58.014 33.6885Z" fill="#E2E8F0"/>
<path d="M45.6443 67.9023C45.6715 73.4252 49.7507 77.876 54.7552 77.8436C59.7598 77.8112 63.7947 73.3078 63.7674 67.785C63.7401 62.2621 59.661 57.8112 54.6565 57.8437C49.6519 57.8761 45.617 62.3795 45.6443 67.9023Z" fill="#475569"/>
<path d="M47.5861 67.8898C47.6075 72.2292 50.8125 75.7263 54.7447 75.7008C58.6768 75.6753 61.8471 72.1369 61.8257 67.7976C61.8042 63.4582 58.5992 59.9611 54.6671 59.9865C50.7349 60.012 47.5646 63.5504 47.5861 67.8898Z" fill="#64748B"/>
<path d="M50.175 67.873C50.1887 70.6344 52.2282 72.8598 54.7305 72.8436C57.2328 72.8274 59.2502 70.5757 59.2366 67.8143C59.223 65.0528 57.1834 62.8274 54.6811 62.8436C52.1789 62.8598 50.1614 65.1115 50.175 67.873Z" fill="#94A3B8"/>
<path d="M52.7761 69.9906C53.8481 69.9837 54.7125 69.0204 54.7066 67.839C54.7008 66.6576 53.827 65.7056 52.7549 65.7125L33.9906 65.8339C32.9185 65.8408 32.0542 66.8041 32.06 67.9855C32.0659 69.1668 32.9397 70.1189 34.0117 70.112L52.7761 69.9906Z" fill="#64748B"/>
<path d="M22.9993 68.0396C23.0265 73.5624 27.1056 78.0133 32.1102 77.9809C37.1148 77.9485 41.1496 73.4451 41.1224 67.9222C41.0951 62.3994 37.016 57.9485 32.0114 57.9809C27.0069 58.0133 22.972 62.5168 22.9993 68.0396Z" fill="#475569"/>
<path d="M24.941 68.027C24.9625 72.3664 28.1675 75.8635 32.0996 75.838C36.0318 75.8125 39.2021 72.2741 39.1806 67.9348C39.1592 63.5954 35.9542 60.0983 32.022 60.1238C28.0899 60.1492 24.9196 63.6876 24.941 68.027Z" fill="#64748B"/>
<path d="M27.53 68.0102C27.5437 70.7716 29.5832 72.9971 32.0855 72.9809C34.5878 72.9647 36.6052 70.7129 36.5916 67.9515C36.5779 65.1901 34.5384 62.9647 32.0361 62.9809C29.5338 62.9971 27.5164 65.2488 27.53 68.0102Z" fill="#94A3B8"/>
<path fill-rule="evenodd" clip-rule="evenodd" d="M68 8C68.5304 8 69.0391 8.21071 69.4142 8.58579C69.7893 8.96086 70 9.46957 70 10V17C70 17.5304 69.7893 18.0391 69.4142 18.4142C69.0391 18.7893 68.5304 19 68 19C67.4696 19 66.9609 18.7893 66.5858 18.4142C66.2107 18.0391 66 17.5304 66 17V10C66 9.46957 66.2107 8.96086 66.5858 8.58579C66.9609 8.21071 67.4696 8 68 8Z" fill="#EF4444"/>
<path d="M70 22C70 22.5304 69.7893 23.0391 69.4142 23.4142C69.0391 23.7893 68.5304 24 68 24C67.4696 24 66.9609 23.7893 66.5858 23.4142C66.2107 23.0391 66 22.5304 66 22C66 21.4696 66.2107 20.9609 66.5858 20.5858C66.9609 20.2107 67.4696 20 68 20C68.5304 20 69.0391 20.2107 69.4142 20.5858C69.7893 20.9609 70 21.4696 70 22Z" fill="#EF4444"/>
</svg>
